<svg version="1.1" xmlns="http://www.w3.org/2000/svg" viewBox="0 0 723.640006363159 170.8780517578125" width="1447.280012726318" height="341.756103515625">
  <!-- svg-source:excalidraw -->
  
  <defs>
    <style class="style-fonts">
      @font-face {
        font-family: "Virgil";
        src: url("https://excalidraw.com/Virgil.woff2");
      }
      @font-face {
        font-family: "Cascadia";
        src: url("https://excalidraw.com/Cascadia.woff2");
      }
    </style>
  </defs>
  <g stroke-linecap="round"><g transform="translate(11.061335861450061 92.15921020507812) rotate(0 350.75866732012946 1.6690620422363338)"><path d="M0.26 -1.1 C117.21 -0.32, 585.48 3.69, 702.58 4.44 M-1.06 0.94 C115.72 1.36, 584.73 1.92, 702.02 2.48" stroke="#000000" stroke-width="1" fill="none"></path></g><g transform="translate(11.061335861450061 92.15921020507812) rotate(0 350.75866732012946 1.6690620422363338)"><path d="M-0.99 -15.17 C0.68 -9.22, -0.7 -5.09, 0.95 -0.14 M-0.33 -15.81 C0.79 -12.08, 0.02 -8.12, -0.48 -0.69" stroke="#000000" stroke-width="1" fill="none"></path></g><g transform="translate(11.061335861450061 92.15921020507812) rotate(0 350.75866732012946 1.6690620422363338)"><path d="M-1.23 14.82 C0.6 9.6, -0.7 2.56, 0.95 -0.14 M-0.57 14.19 C0.6 10.04, -0.11 6.12, -0.48 -0.69" stroke="#000000" stroke-width="1" fill="none"></path></g><g transform="translate(11.061335861450061 92.15921020507812) rotate(0 350.75866732012946 1.6690620422363338)"><path d="M671.97 13.89 C684.84 10.53, 693.57 4.79, 702.94 3.75 M672.85 13.04 C681.79 9.83, 688.21 7.19, 701.03 3.02" stroke="#000000" stroke-width="1" fill="none"></path></g><g transform="translate(11.061335861450061 92.15921020507812) rotate(0 350.75866732012946 1.6690620422363338)"><path d="M672.02 -6.63 C684.83 -2.35, 693.54 -0.44, 702.94 3.75 M672.91 -7.48 C681.84 -5.3, 688.25 -2.55, 701.03 3.02" stroke="#000000" stroke-width="1" fill="none"></path></g></g><g transform="translate(550.4643815157469 11.0078125) rotate(0 54.5 12.5)"><text x="0" y="18" font-family="Virgil, Segoe UI Emoji" font-size="20px" fill="#000000" text-anchor="start" style="white-space: pre;" direction="ltr">Kubernetes</text></g><g transform="translate(462.83462077355944 39.188629150390625) rotate(0 34 12.5)"><text x="0" y="18" font-family="Virgil, Segoe UI Emoji" font-size="20px" fill="#000000" text-anchor="start" style="white-space: pre;" direction="ltr">Docker</text></g><g transform="translate(24.150233566528186 27.72100830078125) rotate(0 46.5 12.5)"><text x="0" y="18" font-family="Virgil, Segoe UI Emoji" font-size="20px" fill="#000000" text-anchor="start" style="white-space: pre;" direction="ltr">AWS EC2</text></g><g transform="translate(312.44008952355944 10) rotate(0 54 12.5)"><text x="0" y="18" font-family="Virgil, Segoe UI Emoji" font-size="20px" fill="#000000" text-anchor="start" style="white-space: pre;" direction="ltr">12 Factors</text></g><g stroke-linecap="round"><g transform="translate(604.4201310274657 53.4921875) rotate(0 -0.03650151679971714 35.27702257997359)"><path d="M-0.8 1.19 C-1 12.5, -1.31 57.12, -1.16 68.19 M0.98 0.77 C1.14 12.27, 1.22 58.46, 0.96 69.78" stroke="#000000" stroke-width="1" fill="none"></path></g></g><g transform="translate(580.2082780001219 135.00399780273438) rotate(0 24 12.5)"><text x="0" y="18" font-family="Virgil, Segoe UI Emoji" font-size="20px" fill="#000000" text-anchor="start" style="white-space: pre;" direction="ltr">2014</text></g><g transform="translate(477.3819230196532 135.85906982421875) rotate(0 24.5 12.5)"><text x="0" y="18" font-family="Virgil, Segoe UI Emoji" font-size="20px" fill="#000000" text-anchor="start" style="white-space: pre;" direction="ltr">2013</text></g><g stroke-linecap="round"><g transform="translate(500.62465983605944 71.44146728515625) rotate(0 0.2005029423162341 27.613112190919935)"><path d="M0.36 0.38 C0.55 9.7, 1.27 46.51, 1.32 55.69 M-0.91 -0.46 C-0.93 8.51, -0.51 44.28, 0.13 53.84" stroke="#000000" stroke-width="1" fill="none"></path></g></g><g transform="translate(193.81170207238756 36.053802490234375) rotate(0 32.5 12.5)"><text x="0" y="18" font-family="Virgil, Segoe UI Emoji" font-size="20px" fill="#000000" text-anchor="start" style="white-space: pre;" direction="ltr">Heroku</text></g><g stroke-linecap="round"><g transform="translate(226.6534073946532 72.89352416992188) rotate(0 -0.8088518992078662 23.343044880693782)"><path d="M-0.01 0.17 C-0.26 7.83, -0.24 38.54, -0.3 46.5 M-1.47 -0.78 C-1.94 6.93, -1.07 39.1, -0.98 47.47" stroke="#000000" stroke-width="1" fill="none"></path></g></g><g transform="translate(200.76504069543444 130.15963745117188) rotate(0 28 12.5)"><text x="0" y="18" font-family="Virgil, Segoe UI Emoji" font-size="20px" fill="#000000" text-anchor="start" style="white-space: pre;" direction="ltr">2009</text></g><g stroke-linecap="round"><g transform="translate(67.98226481652819 70.17254638671875) rotate(0 -0.02069959893754003 22.432375363176675)"><path d="M0.8 1.02 C0.97 8.27, 0.05 35.94, -0.01 42.73 M-0.24 0.51 C-0.13 8.04, -0.91 37.34, -0.86 44.36" stroke="#000000" stroke-width="1" fill="none"></path></g></g><g transform="translate(39.147670089965686 129.7938232421875) rotate(0 28.5 12.5)"><text x="0" y="18" font-family="Virgil, Segoe UI Emoji" font-size="20px" fill="#000000" text-anchor="start" style="white-space: pre;" direction="ltr">2006</text></g><g stroke-linecap="round"><g transform="translate(368.80471354699705 39.82373046875) rotate(0 -0.24512682993827184 41.58261523134075)"><path d="M-1.17 0.16 C-1.5 14.05, -1.6 68.73, -1.38 82.58 M0.42 -0.81 C0.43 13.33, 1.09 70.31, 0.99 83.97" stroke="#000000" stroke-width="1" fill="none"></path></g></g><g transform="translate(347.14699870324694 135.8780517578125) rotate(0 20.5 12.5)"><text x="0" y="18" font-family="Virgil, Segoe UI Emoji" font-size="20px" fill="#000000" text-anchor="start" style="white-space: pre;" direction="ltr">2011</text></g></svg>